# AST/ASF file generated using VICON BodyLanguage
# -----------------------------------------------
:version 1.10
:name VICON
:units
  mass 1.0
  length 0.45
  angle deg
:documentation
   .ast/.asf automatically generated from VICON data using
   VICON BodyBuilder and BodyLanguage model FoxedUp or BRILLIANT.MOD
:root
   order TX TY TZ RX RY RZ
   axis XYZ
   position 0 0 0  
   orientation 0 0 0 
:bonedata
  begin
     id 1 
     name lhipjoint
     direction 0.535335 -0.74333 0.401095 
     length 2.04549 
     axis 0 0 0  XYZ
  end
  begin
     id 2 
     name lfemur
     direction 0.34202 -0.939693 0  
     length 6.95643  
     axis 0 0 20  XYZ
    dof rx ry rz
    limits (-160.0 20.0)
           (-70.0 70.0)
           (-60.0 70.0)
  end
  begin
     id 3 
     name ltibia
     direction 0.34192 -0.939729 0   
     length 5.55969   
     axis 0 0 20   XYZ
    dof rx
    limits (-10.0 170.0)
  end
  begin
     id 4 
     name lfoot
     direction 0.216943 -0.596046 0.773088   
     length 2.27918   
     axis -90 7.62852e-016 20   XYZ
    dof rx rz
    limits (-45.0 90.0)
           (-70.0 20.0)
  end
  begin
     id 5 
     name ltoes
     direction 1.53519e-011 -4.21748e-011 1   
     length 1.05562   
     axis -90 7.62852e-016 20   XYZ
    dof rx
    limits (-90.0 20.0)
  end
  begin
     id 6 
     name rhipjoint
     direction -0.576368 -0.719173 0.38806   
     length 2.1142  
     axis 0 0 0  XYZ 
  end
  begin
     id 7 
     name rfemur
     direction -0.34202 -0.939693 0   
     length 7.07928   
     axis 0 0 -20   XYZ
    dof rx ry rz
    limits (-160.0 20.0)
           (-70.0 70.0)
           (-70.0 60.0)
  end
  begin
     id 8 
     name rtibia
     direction -0.34202 -0.939693 0   
     length 5.79974   
     axis 0 0 -20   XYZ
    dof rx
    limits (-10.0 170.0)
 end
 begin
     id 9 
     name rfoot
     direction -0.189288 -0.520065 0.832888   
     length 2.42173  
     axis -90 -7.62852e-016 -20   XYZ
    dof rx rz
    limits (-45.0 90.0)
           (-20.0 70.0)
  end
  begin
     id 10 
     name rtoes
     direction -1.53574e-011 -4.21658e-011 1   
     length 1.14469   
     axis -90 -7.62852e-016 -20   XYZ
    dof rx
    limits (-90.0 20.0)
  end
  begin
     id 11 
     name lowerback
     direction -0.00135702 0.993803 0.111144   
     length 1.91308   
     axis 0 0 0   XYZ
    dof rx ry rz
    limits (-20.0 45.0)
           (-30.0 30.0)
           (-30.0 30.0)
  end
  begin
     id 12 
     name upperback
     direction -0.0056745 0.999813 0.0184631   
     length 1.9212   
     axis 0 0 0   XYZ
    dof rx ry rz
    limits (-20.0 45.0)
           (-30.0 30.0)
           (-30.0 30.0)
  end
  begin
     id 13 
     name thorax
     direction -0.00733434 0.999426 -0.0330788   
     length 1.94196   
     axis 0 0 0   XYZ
    dof rx ry rz
    limits (-20.0 45.0)
           (-30.0 30.0)
           (-30.0 30.0)
  end
  begin
     id 14 
     name lowerneck
     direction 0.0563074 0.996944 -0.0541571   
     length 2.34257   
     axis 0 0 0   XYZ
    dof rx ry rz
    limits (-20.0 45.0)
           (-30.0 30.0)
           (-30.0 30.0)
  end
  begin
     id 15 
     name upperneck
     direction -0.0544519 0.976166 -0.210085   
     length 2.32506   
     axis 0 0 0   XYZ
    dof rx ry rz
    limits (-20.0 45.0)
           (-30.0 30.0)
           (-30.0 30.0)
  end
  begin
     id 16
     name head
     direction -0.0226035 0.997615 -0.0652205  
     length 2.3648  
     axis 0 0 0   XYZ
    dof rx ry rz
    limits (-20.0 45.0)
           (-30.0 30.0)
           (-30.0 30.0)
  end
  begin
     id 17 
     name lclavicle
     direction 0.92109 0.381297 -0.0787716  
     length 4.0487  
     axis 0 0 0   XYZ
    dof ry rz
    limits (-20.0 10.0)
           (0.0 20.0)
  end
  begin
     id 18 
     name lhumerus
     direction 1 -4.48986e-011 3.56724e-027   
     length 4.94991   
     axis 180 -30 -90   XYZ
    dof rx ry rz
    limits (-60.0 90.0)
           (-90.0 90.0)
           (-90.0 90.0)
  end
  begin
     id 19
     name lradius
     direction 1 -4.48981e-011 8.62147e-027   
     length 2.7606   
     axis 180 -30 -90   XYZ
    dof rx
    limits (-10.0 170.0)
  end
  begin
     id 20
     name lwrist
     direction 1 -4.48989e-011 1.59799e-026   
     length 1.3803   
     axis -1.17785e-014 90 90   XYZ
    dof ry
    limits (-180.0 0.0)
 end
  begin
     id 21 
     name lhand
     direction 1 -4.48896e-011 3.19599e-026   
     length 0.843936   
     axis -2.03931e-014 90 90   XYZ
    dof rx rz
    limits (-90.0 90.0)
           (-45.0 45.0)
  end
  begin
     id 22 
     name lfingers
     direction 1 -4.48887e-011 6.39197e-026   
     length 0.680403   
     axis -4.07862e-014 90 90   XYZ
    dof rx
    limits (0.0 90.0)
  end
  begin
     id 23
     name lthumb
     direction 0.707107 -6.348e-011 0.707107   
     length 0.976926   
     axis -90 45 2.85299e-015   XYZ
    dof rx rz
    limits (-45.0 45.0)
           (-45.0 45.0)
  end
  begin
     id 24 
     name rclavicle
     direction -0.951104 0.307692 -0.026953   
     length 4.21801  
     axis 0 0 0   XYZ 
    dof ry rz
    limits (-10.0 20.0)
           (-20.0 0.0)
  end
  begin
     id 25 
     name rhumerus
     direction -1 -4.4896e-011 -1.8171e-018  
     length 4.32982   
     axis 180 30 90   XYZ
    dof rx ry rz
    limits (-90.0 60.0)
           (-90.0 90.0)
           (-90.0 90.0)
  end
  begin
     id 26 
     name rradius
     direction -1 -4.48959e-011 8.25165e-027   
     length 3.20057   
     axis 180 30 90   XYZ
    dof rx
    limits (-10.0 170.0)
  end
  begin
     id 27 
     name rwrist
     direction -1 -4.48997e-011 1.59799e-026   
     length 1.60029   
     axis -1.17785e-014 -90 -90   XYZ
    dof ry
    limits (-180.0 0.0)
  end
  begin
     id 28
     name rhand
     direction -1 -4.49023e-011 3.19599e-026   
     length 0.960433   
     axis -2.03931e-014 -90 -90   XYZ
    dof rx rz
    limits (-90.0 90.0)
           (-45.0 45.0)
  end
  begin
     id 29
     name rfingers
     direction -1 -4.48802e-011 6.39197e-026   
     length 0.774326   
     axis -4.07862e-014 -90 -90   XYZ
    dof rx
    limits (0.0 90.0)
  end
  begin
     id 30
     name rthumb
     direction -0.707107 -6.34876e-011 0.707107   
     length 1.11178   
     axis -90 -45 -2.85299e-015   XYZ
    dof rx rz
    limits (-45.0 45.0)
           (-45.0 45.0)
  end
:hierarchy
  begin
    root lhipjoint rhipjoint lowerback
    lhipjoint lfemur
    lfemur ltibia
    ltibia lfoot
    lfoot ltoes
    rhipjoint rfemur
    rfemur rtibia
    rtibia rfoot
    rfoot rtoes
    lowerback upperback
    upperback thorax
    thorax lowerneck lclavicle rclavicle
    lowerneck upperneck
    upperneck head
    lclavicle lhumerus
    lhumerus lradius
    lradius lwrist
    lwrist lhand lthumb
    lhand lfingers
    rclavicle rhumerus
    rhumerus rradius
    rradius rwrist
    rwrist rhand rthumb
    rhand rfingers
end

#!OML:ASF C:\KaitlinTest1\Natural Motions\Nikki\Session 2\Nikki.ASF
:FULLY-SPECIFIED
:DEGREES
421
root -13.6291 16.7301 5.03185 -315.565 92.4545 -325.575
lowerback -13.5123 -0.769461 3.77445
upperback -5.79686 -1.18741 -0.650886
thorax 1.37085 -0.53843 -2.97522
lowerneck -9.89283 -13.1447 -8.94664
upperneck 5.07567 42.3313 5.59429
head 167.913 56.2785 -37.7399
rclavicle 1.19519e-014 9.93923e-016
rhumerus -37.6253 -13.8901 -88.0416
rradius 21.9297
rwrist 12.0138
rhand -36.7099 2.4269
rfingers 7.12502
rthumb -9.7948 -27.3253
lclavicle 1.19519e-014 9.93923e-016
lhumerus -39.935 15.4721 81.0648
lradius 24.3945
lwrist -26.3973
lhand -36.2772 2.26085
lfingers 7.12502
lthumb -9.37728 32.0323
rfemur -8.92689 -20.1095 21.0499
rtibia 11.6585
rfoot -10.4166 14.7312
rtoes 1.66979e-014
lfemur -15.1679 20.7186 -19.0849
ltibia 14.7979
lfoot -2.80528 -20.5934
ltoes -4.6118e-014
422
root -13.6288 16.7294 5.03565 -314.701 92.3522 -324.664
lowerback -13.6236 -0.779055 3.67862
upperback -5.72355 -1.1972 -0.642213
thorax 1.50992 -0.539111 -2.91651
lowerneck -9.92593 -13.0601 -8.98089
upperneck 5.11548 42.5705 5.65959
head 168.228 56.0779 -37.5853
rclavicle -1.68967e-015 -2.98177e-015
rhumerus -36.9631 -13.1449 -88.7998
rradius 22.0287
rwrist 11.8433
rhand -36.695 2.6113
rfingers 7.12502
rthumb -9.78043 -27.1416
lclavicle -1.68967e-015 -2.98177e-015
lhumerus -39.2203 15.0826 81.5946
lradius 24.4583
lwrist -26.0787
lhand -36.2844 2.16861
lfingers 7.12502
lthumb -9.3842 31.9397
rfemur -8.87856 -19.8144 21.018
rtibia 11.6638
rfoot -10.4201 14.5132
rtoes -1.03368e-014
lfemur -15.0595 20.7208 -19.0609
ltibia 14.6898
lfoot -2.75966 -20.5292
ltoes -1.90833e-014
423
root -13.6312 16.7301 5.04101 -316.184 92.1773 -326.159
lowerback -13.6603 -0.81515 3.44208
upperback -5.75112 -1.21391 -0.658897
thorax 1.50583 -0.544017 -2.80311
lowerneck -9.84094 -13.0126 -8.98123
upperneck 5.15576 42.6086 5.67859
head 168.205 56.1299 -37.593
rclavicle 1.33931e-014 1.76918e-014
rhumerus -36.5025 -12.518 -89.4028
rradius 22.2003
rwrist 11.8238
rhand -36.4548 2.74673
rfingers 7.12502
rthumb -9.54864 -27.0169
lclavicle 1.33931e-014 1.76918e-014
lhumerus -38.8832 15.0896 81.8126
lradius 24.8624
lwrist -26.2766
lhand -36.2794 1.95248
lfingers 7.12502
lthumb -9.37939 31.7238
rfemur -8.90277 -19.5429 20.8665
rtibia 11.668
rfoot -10.3988 14.3158
rtoes 9.14409e-014
lfemur -15.0415 20.7308 -19.2149
ltibia 14.6101
lfoot -2.68946 -20.4617
ltoes 3.81667e-014
424
root -13.6332 16.7298 5.04475 -317.117 92.012 -327.087
lowerback -13.7006 -0.854302 3.24879
upperback -5.76006 -1.24192 -0.658934
thorax 1.52168 -0.554773 -2.69868
lowerneck -9.77668 -12.9563 -8.98111
upperneck 5.18247 42.6286 5.68622
head 168.167 56.2051 -37.6067
rclavicle -1.66482e-015 -5.96354e-015
rhumerus -36.0631 -11.8642 -89.9531
rradius 22.3181
rwrist 11.7661
rhand -36.3093 3.21213
rfingers 7.12502
rthumb -9.40823 -26.5579
lclavicle -1.66482e-015 -5.96354e-015
lhumerus -38.398 14.6556 82.3158
lradius 25.1002
lwrist -25.546
lhand -36.2111 1.79772
lfingers 7.12502
lthumb -9.31348 31.572
rfemur -8.94781 -19.4299 20.7427
rtibia 11.7664
rfoot -10.4865 14.2573
rtoes -5.88403e-014
lfemur -14.9837 20.7462 -19.3324
ltibia 14.4889
lfoot -2.59704 -20.3859
ltoes -5.725e-014
425
root -13.6355 16.7292 5.04682 -316.089 91.9252 -326.01
lowerback -13.6833 -0.867379 3.19744
upperback -5.76248 -1.25283 -0.650055
thorax 1.51083 -0.559808 -2.66156
lowerneck -9.69917 -12.9362 -8.96166
upperneck 5.19027 42.5421 5.66739
head 167.999 56.3718 -37.6847
rclavicle -1.93815e-015 -3.57812e-015
rhumerus -35.6822 -11.4289 -90.3833
rradius 22.4675
rwrist 11.8111
rhand -36.1174 3.45694
rfingers 7.12502
rthumb -9.2231 -26.3213
lclavicle -1.93815e-015 -3.57812e-015
lhumerus -38.0472 14.6617 82.503
lradius 25.3457
lwrist -25.7006
lhand -36.1238 1.90793
lfingers 7.12502
lthumb -9.22927 31.6859
rfemur -8.9948 -19.4322 20.7229
rtibia 11.9164
rfoot -10.5652 14.334
rtoes 3.10104e-014
lfemur -14.8607 20.698 -19.3047
ltibia 14.3861
lfoot -2.54719 -20.2551
ltoes 1.90833e-014
426
root -13.6362 16.7289 5.04883 -313.378 91.86 -323.259
lowerback -13.6634 -0.892181 3.20032
upperback -5.80144 -1.28385 -0.620712
thorax 1.45776 -0.575785 -2.63605
lowerneck -9.55798 -12.917 -8.91806
upperneck 5.23015 42.4578 5.65208
head 167.718 56.5309 -37.8116
rclavicle -4.77083e-015 5.56597e-015
rhumerus -35.3372 -11.0021 -90.7679
rradius 22.5405
rwrist 11.7658
rhand -35.9341 3.53553
rfingers 7.12502
rthumb -9.04621 -26.2505
lclavicle -4.77083e-015 5.56597e-015
lhumerus -37.7749 14.4414 82.806
lradius 25.6323
lwrist -25.0889
lhand -36.2071 1.73142
lfingers 7.12502
lthumb -9.30966 31.5059
rfemur -9.02094 -19.3672 20.7552
rtibia 12.013
rfoot -10.5987 14.3624
rtoes 6.36111e-015
lfemur -14.7795 20.6405 -19.2203
ltibia 14.3454
lfoot -2.49884 -20.1148
ltoes 4.77083e-015
427
root -13.6712 16.7274 5.06166 -314.9 92.1161 -324.702
lowerback -13.1332 -1.0524 3.11025
upperback -5.89065 -1.4705 -0.529822
thorax 1.07268 -0.675417 -2.5031
lowerneck -9.51136 -12.8362 -8.91779
upperneck 5.26921 42.5741 5.7046
head 167.891 56.5 -37.718
rclavicle 8.57259e-015 3.37934e-015
rhumerus -34.7883 -10.8227 -91.0615
rradius 22.3346
rwrist 11.8133
rhand -35.8019 3.69134
rfingers 7.12502
rthumb -8.91868 -26.1002
lclavicle 8.57259e-015 3.37934e-015
lhumerus -36.649 12.4704 83.9115
lradius 24.7479
lwrist -23.1124
lhand -36.6781 2.23062
lfingers 7.12502
lthumb -9.76405 31.9843
rfemur -9.1341 -18.4233 21.0021
rtibia 12.2268
rfoot -10.5573 13.1594
rtoes -1.04958e-013
lfemur -14.8933 20.3854 -18.9916
ltibia 14.231
lfoot -2.19129 -20.0744
ltoes -5.40694e-014
428
root -13.6729 16.7264 5.06462 -313.453 92.0733 -323.238
lowerback -13.1395 -1.09386 3.05806
upperback -5.89403 -1.51993 -0.500654
thorax 1.07189 -0.698902 -2.44998
lowerneck -9.4624 -12.7936 -8.88234
upperneck 5.28806 42.5725 5.71564
head 167.846 56.5489 -37.7298
rclavicle -1.04362e-015 4.37326e-015
rhumerus -34.421 -10.4798 -91.4152
rradius 22.4563
rwrist 11.6194
rhand -35.6419 3.54575
rfingers 7.12502
rthumb -8.76425 -26.2523
lclavicle -1.04362e-015 4.37326e-015
lhumerus -36.3478 11.6227 84.4345
lradius 25.0666
lwrist -22.0849
lhand -36.7133 2.34424
lfingers 7.12502
lthumb -9.79805 32.0963
rfemur -9.21227 -18.4119 21.0344
rtibia 12.3972
rfoot -10.6579 13.1887
rtoes 4.53229e-014
lfemur -14.8317 20.3901 -18.9466
ltibia 14.1399
lfoot -2.15621 -20.0245
ltoes 8.74653e-014
429
root -13.6867 16.7338 5.06653 -319.497 91.7255 -329.691
lowerback -13.4506 -1.15117 2.6334
upperback -6.00508 -1.54011 -0.553819
thorax 1.13349 -0.698167 -2.27467
lowerneck -9.50923 -12.721 -8.88803
upperneck 5.28725 42.6468 5.72235
head 167.891 56.5941 -37.7244
rclavicle -1.9133e-014 -1.59028e-015
rhumerus -34.0438 -10.0691 -91.7148
rradius 22.6209
rwrist 11.2207
rhand -35.4664 3.54724
rfingers 7.12502
rthumb -8.59491 -26.2578
lclavicle -1.9133e-014 -1.59028e-015
lhumerus -35.9922 13.1561 83.8476
lradius 24.928
lwrist -23.7602
lhand -36.5999 1.95243
lfingers 7.12502
lthumb -9.68859 31.7096
rfemur -9.91811 -19.1584 20.7555
rtibia 12.6494
rfoot -10.7244 14.0521
rtoes -1.03368e-014
lfemur -15.258 20.406 -19.6201
ltibia 13.9896
lfoot -2.07633 -19.9134
ltoes 3.81667e-014
